<mxfile host="Electron" modified="2023-08-07T09:42:14.126Z" agent="Mozilla/5.0 (Windows NT 10.0; Win64; x64) AppleWebKit/537.36 (KHTML, like Gecko) draw.io/21.6.5 Chrome/114.0.5735.243 Electron/25.3.1 Safari/537.36" etag="8M0hnHa9ybdlyFpWRFWR" version="21.6.5" type="device">
  <diagram name="第 1 页" id="S5JzSjpfM-Ko2oALQSnp">
    <mxGraphModel dx="683" dy="398" grid="0" gridSize="10" guides="1" tooltips="1" connect="1" arrows="1" fold="1" page="1" pageScale="1" pageWidth="827" pageHeight="1169" math="0" shadow="0">
      <root>
        <mxCell id="0" />
        <mxCell id="1" parent="0" />
        <mxCell id="Pfn0XXW-cM1ubuhWvv3X-1" value="" style="rounded=0;whiteSpace=wrap;html=1;fillColor=#f5f5f5;strokeColor=#666666;fontColor=#333333;" parent="1" vertex="1">
          <mxGeometry x="110" y="210" width="80" height="170" as="geometry" />
        </mxCell>
        <mxCell id="Pfn0XXW-cM1ubuhWvv3X-2" value="" style="rounded=0;whiteSpace=wrap;html=1;fillColor=#d5e8d4;strokeColor=#82b366;" parent="1" vertex="1">
          <mxGeometry x="440" y="210" width="90" height="170" as="geometry" />
        </mxCell>
        <mxCell id="Pfn0XXW-cM1ubuhWvv3X-3" value="" style="rounded=0;whiteSpace=wrap;html=1;fillColor=#ffe6cc;strokeColor=#d79b00;" parent="1" vertex="1">
          <mxGeometry x="200" y="210" width="230" height="170" as="geometry" />
        </mxCell>
        <mxCell id="Pfn0XXW-cM1ubuhWvv3X-32" style="edgeStyle=orthogonalEdgeStyle;rounded=0;orthogonalLoop=1;jettySize=auto;html=1;exitX=1;exitY=0;exitDx=0;exitDy=26.25;exitPerimeter=0;entryX=0.019;entryY=0.165;entryDx=0;entryDy=0;entryPerimeter=0;" parent="1" source="Pfn0XXW-cM1ubuhWvv3X-4" target="Pfn0XXW-cM1ubuhWvv3X-6" edge="1">
          <mxGeometry relative="1" as="geometry" />
        </mxCell>
        <mxCell id="Pfn0XXW-cM1ubuhWvv3X-4" value="&lt;font style=&quot;font-size: 11px;&quot;&gt;fsck_info&lt;br style=&quot;&quot;&gt;dump&lt;/font&gt;" style="shape=cylinder3;whiteSpace=wrap;html=1;boundedLbl=1;backgroundOutline=1;size=15;fillColor=#dae8fc;strokeColor=#6c8ebf;" parent="1" vertex="1">
          <mxGeometry x="230" y="215" width="40" height="75" as="geometry" />
        </mxCell>
        <mxCell id="Pfn0XXW-cM1ubuhWvv3X-35" style="edgeStyle=orthogonalEdgeStyle;rounded=0;orthogonalLoop=1;jettySize=auto;html=1;exitX=1;exitY=0.5;exitDx=0;exitDy=0;entryX=0;entryY=0;entryDx=20;entryDy=0;entryPerimeter=0;" parent="1" target="Pfn0XXW-cM1ubuhWvv3X-12" edge="1">
          <mxGeometry relative="1" as="geometry">
            <mxPoint x="420" y="260" as="sourcePoint" />
            <mxPoint x="310" y="305" as="targetPoint" />
            <Array as="points">
              <mxPoint x="430" y="260" />
              <mxPoint x="430" y="305" />
              <mxPoint x="310" y="305" />
            </Array>
          </mxGeometry>
        </mxCell>
        <mxCell id="Pfn0XXW-cM1ubuhWvv3X-6" value="fsck_info_ko_generator" style="rounded=0;whiteSpace=wrap;html=1;fillColor=#f8cecc;strokeColor=#b85450;" parent="1" vertex="1">
          <mxGeometry x="290" y="230" width="130" height="70" as="geometry" />
        </mxCell>
        <mxCell id="Pfn0XXW-cM1ubuhWvv3X-33" style="edgeStyle=orthogonalEdgeStyle;rounded=0;orthogonalLoop=1;jettySize=auto;html=1;exitX=0;exitY=0;exitDx=20;exitDy=0;exitPerimeter=0;entryX=0;entryY=0.75;entryDx=0;entryDy=0;" parent="1" source="Pfn0XXW-cM1ubuhWvv3X-8" target="Pfn0XXW-cM1ubuhWvv3X-6" edge="1">
          <mxGeometry relative="1" as="geometry">
            <Array as="points">
              <mxPoint x="280" y="310" />
              <mxPoint x="280" y="282" />
            </Array>
          </mxGeometry>
        </mxCell>
        <mxCell id="Pfn0XXW-cM1ubuhWvv3X-8" value="template" style="shape=note;whiteSpace=wrap;html=1;backgroundOutline=1;darkOpacity=0.05;fillColor=#f8cecc;strokeColor=#b85450;" parent="1" vertex="1">
          <mxGeometry x="225" y="310" width="50" height="54" as="geometry" />
        </mxCell>
        <mxCell id="Pfn0XXW-cM1ubuhWvv3X-12" value="&lt;font style=&quot;font-size: 11px;&quot;&gt;&lt;font style=&quot;font-size: 11px;&quot;&gt;fsck_info&lt;/font&gt;.c&lt;/font&gt;" style="shape=note;whiteSpace=wrap;html=1;backgroundOutline=1;darkOpacity=0.05;fillColor=#dae8fc;strokeColor=#6c8ebf;" parent="1" vertex="1">
          <mxGeometry x="290" y="310" width="50" height="54" as="geometry" />
        </mxCell>
        <mxCell id="Pfn0XXW-cM1ubuhWvv3X-23" style="edgeStyle=orthogonalEdgeStyle;rounded=0;orthogonalLoop=1;jettySize=auto;html=1;exitX=1;exitY=0.5;exitDx=0;exitDy=0;entryX=0;entryY=0.75;entryDx=0;entryDy=0;" parent="1" source="Pfn0XXW-cM1ubuhWvv3X-13" target="Pfn0XXW-cM1ubuhWvv3X-15" edge="1">
          <mxGeometry relative="1" as="geometry" />
        </mxCell>
        <mxCell id="Pfn0XXW-cM1ubuhWvv3X-13" value="ko" style="ellipse;whiteSpace=wrap;html=1;aspect=fixed;fillColor=#dae8fc;strokeColor=#6c8ebf;" parent="1" vertex="1">
          <mxGeometry x="366" y="312.25" width="51.5" height="51.5" as="geometry" />
        </mxCell>
        <mxCell id="Pfn0XXW-cM1ubuhWvv3X-22" style="edgeStyle=orthogonalEdgeStyle;rounded=0;orthogonalLoop=1;jettySize=auto;html=1;exitX=0.5;exitY=1;exitDx=0;exitDy=0;endArrow=classicThin;endFill=1;startArrow=classicThin;startFill=1;" parent="1" source="Pfn0XXW-cM1ubuhWvv3X-14" target="Pfn0XXW-cM1ubuhWvv3X-15" edge="1">
          <mxGeometry relative="1" as="geometry" />
        </mxCell>
        <mxCell id="Pfn0XXW-cM1ubuhWvv3X-14" value="f2fs" style="rounded=0;whiteSpace=wrap;html=1;fillColor=#f8cecc;strokeColor=#b85450;" parent="1" vertex="1">
          <mxGeometry x="450" y="220" width="70" height="50" as="geometry" />
        </mxCell>
        <mxCell id="Pfn0XXW-cM1ubuhWvv3X-15" value="module" style="rounded=0;whiteSpace=wrap;html=1;fillColor=#dae8fc;strokeColor=#6c8ebf;" parent="1" vertex="1">
          <mxGeometry x="450" y="300" width="70" height="50" as="geometry" />
        </mxCell>
        <mxCell id="Pfn0XXW-cM1ubuhWvv3X-28" style="edgeStyle=orthogonalEdgeStyle;rounded=0;orthogonalLoop=1;jettySize=auto;html=1;exitX=0;exitY=0.5;exitDx=0;exitDy=0;entryX=0;entryY=0.5;entryDx=0;entryDy=0;" parent="1" source="Pfn0XXW-cM1ubuhWvv3X-17" target="Pfn0XXW-cM1ubuhWvv3X-25" edge="1">
          <mxGeometry relative="1" as="geometry" />
        </mxCell>
        <mxCell id="Pfn0XXW-cM1ubuhWvv3X-29" style="edgeStyle=orthogonalEdgeStyle;rounded=0;orthogonalLoop=1;jettySize=auto;html=1;exitX=1;exitY=0.5;exitDx=0;exitDy=0;" parent="1" source="Pfn0XXW-cM1ubuhWvv3X-17" target="Pfn0XXW-cM1ubuhWvv3X-14" edge="1">
          <mxGeometry relative="1" as="geometry" />
        </mxCell>
        <mxCell id="Pfn0XXW-cM1ubuhWvv3X-17" value="" style="rounded=0;whiteSpace=wrap;html=1;fillColor=#bac8d3;strokeColor=#23445d;" parent="1" vertex="1">
          <mxGeometry x="280" y="144" width="60" height="56.5" as="geometry" />
        </mxCell>
        <mxCell id="Pfn0XXW-cM1ubuhWvv3X-18" value="" style="ellipse;whiteSpace=wrap;html=1;aspect=fixed;fillColor=#f5f5f5;fontColor=#333333;strokeColor=#666666;" parent="1" vertex="1">
          <mxGeometry x="285" y="147.25" width="50" height="50" as="geometry" />
        </mxCell>
        <mxCell id="Pfn0XXW-cM1ubuhWvv3X-10" value="" style="whiteSpace=wrap;html=1;aspect=fixed;shape=waypoint;sketch=0;fillStyle=solid;size=6;pointerEvents=1;points=[];fillColor=#f5f5f5;resizable=0;rotatable=0;perimeter=centerPerimeter;snapToPoint=1;fontColor=#333333;strokeColor=#666666;" parent="1" vertex="1">
          <mxGeometry x="294" y="154.75" width="35" height="35" as="geometry" />
        </mxCell>
        <mxCell id="Pfn0XXW-cM1ubuhWvv3X-19" value="fsck.f2fs" style="text;html=1;strokeColor=none;fillColor=none;align=center;verticalAlign=middle;whiteSpace=wrap;rounded=0;" parent="1" vertex="1">
          <mxGeometry x="120" y="350" width="60" height="30" as="geometry" />
        </mxCell>
        <mxCell id="Pfn0XXW-cM1ubuhWvv3X-20" value="linux" style="text;html=1;strokeColor=none;fillColor=none;align=center;verticalAlign=middle;whiteSpace=wrap;rounded=0;" parent="1" vertex="1">
          <mxGeometry x="455" y="350" width="60" height="30" as="geometry" />
        </mxCell>
        <mxCell id="Pfn0XXW-cM1ubuhWvv3X-27" style="edgeStyle=orthogonalEdgeStyle;rounded=0;orthogonalLoop=1;jettySize=auto;html=1;exitX=1;exitY=0.5;exitDx=0;exitDy=0;entryX=0;entryY=0.5;entryDx=0;entryDy=0;entryPerimeter=0;" parent="1" source="Pfn0XXW-cM1ubuhWvv3X-24" target="Pfn0XXW-cM1ubuhWvv3X-4" edge="1">
          <mxGeometry relative="1" as="geometry" />
        </mxCell>
        <mxCell id="Pfn0XXW-cM1ubuhWvv3X-24" value="fsck_info.c" style="rounded=0;whiteSpace=wrap;html=1;fillColor=#f8cecc;strokeColor=#b85450;" parent="1" vertex="1">
          <mxGeometry x="120" y="232" width="60" height="40" as="geometry" />
        </mxCell>
        <mxCell id="Pfn0XXW-cM1ubuhWvv3X-26" style="edgeStyle=orthogonalEdgeStyle;rounded=0;orthogonalLoop=1;jettySize=auto;html=1;exitX=0.5;exitY=0;exitDx=0;exitDy=0;" parent="1" source="Pfn0XXW-cM1ubuhWvv3X-25" target="Pfn0XXW-cM1ubuhWvv3X-24" edge="1">
          <mxGeometry relative="1" as="geometry" />
        </mxCell>
        <mxCell id="Pfn0XXW-cM1ubuhWvv3X-25" value="main" style="rounded=0;whiteSpace=wrap;html=1;fillColor=#f8cecc;strokeColor=#b85450;" parent="1" vertex="1">
          <mxGeometry x="120" y="300" width="60" height="40" as="geometry" />
        </mxCell>
        <mxCell id="Pfn0XXW-cM1ubuhWvv3X-42" value="" style="endArrow=classic;html=1;rounded=0;endFill=1;" parent="1" source="Pfn0XXW-cM1ubuhWvv3X-12" target="Pfn0XXW-cM1ubuhWvv3X-13" edge="1">
          <mxGeometry width="50" height="50" relative="1" as="geometry">
            <mxPoint x="490" y="460" as="sourcePoint" />
            <mxPoint x="540" y="410" as="targetPoint" />
          </mxGeometry>
        </mxCell>
        <mxCell id="Pfn0XXW-cM1ubuhWvv3X-44" value="f2fs Flash" style="text;html=1;strokeColor=none;fillColor=none;align=center;verticalAlign=middle;whiteSpace=wrap;rounded=0;" parent="1" vertex="1">
          <mxGeometry x="280" y="117.25" width="60" height="30" as="geometry" />
        </mxCell>
        <mxCell id="Pfn0XXW-cM1ubuhWvv3X-45" value="&lt;font color=&quot;#cc00cc&quot; style=&quot;font-size: 9px;&quot;&gt;read fsck-info&lt;/font&gt;" style="text;html=1;strokeColor=none;fillColor=none;align=center;verticalAlign=middle;whiteSpace=wrap;rounded=0;" parent="1" vertex="1">
          <mxGeometry x="430" y="270" width="110" height="30" as="geometry" />
        </mxCell>
        <mxCell id="p9FmAYlGjGbn-gVfo6cF-2" value="module generator" style="text;html=1;strokeColor=none;fillColor=none;align=center;verticalAlign=middle;whiteSpace=wrap;rounded=0;" vertex="1" parent="1">
          <mxGeometry x="260" y="359" width="116" height="30" as="geometry" />
        </mxCell>
        <mxCell id="p9FmAYlGjGbn-gVfo6cF-3" value="&lt;font color=&quot;#cc00cc&quot; style=&quot;font-size: 10px;&quot;&gt;insmod&lt;/font&gt;" style="text;html=1;strokeColor=none;fillColor=none;align=center;verticalAlign=middle;whiteSpace=wrap;rounded=0;" vertex="1" parent="1">
          <mxGeometry x="399" y="312" width="60" height="30" as="geometry" />
        </mxCell>
        <mxCell id="p9FmAYlGjGbn-gVfo6cF-4" value="&lt;font color=&quot;#cc00cc&quot; style=&quot;font-size: 10px;&quot;&gt;build&lt;/font&gt;" style="text;html=1;strokeColor=none;fillColor=none;align=center;verticalAlign=middle;whiteSpace=wrap;rounded=0;" vertex="1" parent="1">
          <mxGeometry x="325" y="293" width="60" height="30" as="geometry" />
        </mxCell>
        <mxCell id="p9FmAYlGjGbn-gVfo6cF-5" value="&lt;font color=&quot;#cc00cc&quot; style=&quot;font-size: 10px;&quot;&gt;compile&lt;/font&gt;" style="text;html=1;strokeColor=none;fillColor=none;align=center;verticalAlign=middle;whiteSpace=wrap;rounded=0;" vertex="1" parent="1">
          <mxGeometry x="321" y="312.25" width="60" height="30" as="geometry" />
        </mxCell>
        <mxCell id="p9FmAYlGjGbn-gVfo6cF-6" value="&lt;font color=&quot;#cc00cc&quot; style=&quot;font-size: 10px;&quot;&gt;output&lt;/font&gt;" style="text;html=1;strokeColor=none;fillColor=none;align=center;verticalAlign=middle;whiteSpace=wrap;rounded=0;" vertex="1" parent="1">
          <mxGeometry x="173" y="230" width="60" height="30" as="geometry" />
        </mxCell>
        <mxCell id="p9FmAYlGjGbn-gVfo6cF-7" value="&lt;font color=&quot;#cc00cc&quot; style=&quot;font-size: 10px;&quot;&gt;info&lt;/font&gt;" style="text;html=1;strokeColor=none;fillColor=none;align=center;verticalAlign=middle;whiteSpace=wrap;rounded=0;" vertex="1" parent="1">
          <mxGeometry x="110" y="275" width="60" height="30" as="geometry" />
        </mxCell>
        <mxCell id="p9FmAYlGjGbn-gVfo6cF-8" value="&lt;font color=&quot;#cc00cc&quot; style=&quot;font-size: 10px;&quot;&gt;read disk&lt;/font&gt;" style="text;html=1;strokeColor=none;fillColor=none;align=center;verticalAlign=middle;whiteSpace=wrap;rounded=0;" vertex="1" parent="1">
          <mxGeometry x="125" y="150" width="60" height="30" as="geometry" />
        </mxCell>
        <mxCell id="p9FmAYlGjGbn-gVfo6cF-9" value="&lt;font color=&quot;#cc00cc&quot; style=&quot;font-size: 10px;&quot;&gt;read disk&lt;/font&gt;" style="text;html=1;strokeColor=none;fillColor=none;align=center;verticalAlign=middle;whiteSpace=wrap;rounded=0;" vertex="1" parent="1">
          <mxGeometry x="361.75" y="147.25" width="60" height="30" as="geometry" />
        </mxCell>
      </root>
    </mxGraphModel>
  </diagram>
</mxfile>
